<?xml version="1.0" encoding="UTF-8"?>
<svg id="Layer_2" data-name="Layer 2" xmlns="http://www.w3.org/2000/svg" xmlns:xlink="http://www.w3.org/1999/xlink" viewBox="0 0 277.68 76.86">
  <defs>
    <style>
      .cls-1 {
        fill: url(#linear-gradient-2);
      }

      .cls-2 {
        fill: #fff;
      }

      .cls-3 {
        fill: url(#radial-gradient);
      }

      .cls-4 {
        fill: url(#radial-gradient-2);
      }

      .cls-5 {
        fill: #287654;
      }

      .cls-6 {
        fill: url(#linear-gradient);
      }
    </style>
    <radialGradient id="radial-gradient" cx="34.67" cy="40.93" fx="34.67" fy="40.93" r="34.9" gradientUnits="userSpaceOnUse">
      <stop offset="0" stop-color="#fff"/>
      <stop offset=".21" stop-color="#f5f7f9"/>
      <stop offset=".5" stop-color="#edf1f4"/>
      <stop offset=".57" stop-color="#e8edf0"/>
      <stop offset=".65" stop-color="#dae3e7"/>
      <stop offset=".73" stop-color="#c4d2d7"/>
      <stop offset=".82" stop-color="#a4bbc1"/>
      <stop offset=".9" stop-color="#7c9ca5"/>
      <stop offset=".99" stop-color="#4b7884"/>
      <stop offset="1" stop-color="#477581"/>
    </radialGradient>
    <radialGradient id="radial-gradient-2" cx="38.43" cy="38.43" fx="38.43" fy="38.43" r="38.43" gradientUnits="userSpaceOnUse">
      <stop offset="0" stop-color="#eaecde"/>
      <stop offset=".2" stop-color="#cedaa6"/>
      <stop offset=".58" stop-color="#96b834"/>
      <stop offset=".64" stop-color="#90b435"/>
      <stop offset=".73" stop-color="#7faa3a"/>
      <stop offset=".83" stop-color="#649a42"/>
      <stop offset=".94" stop-color="#3e834d"/>
      <stop offset="1" stop-color="#287654"/>
    </radialGradient>
    <linearGradient id="linear-gradient" x1="20.35" y1="29.07" x2="28.56" y2="80.77" gradientUnits="userSpaceOnUse">
      <stop offset="0" stop-color="#287654"/>
      <stop offset=".06" stop-color="#3e834d"/>
      <stop offset=".18" stop-color="#649a42"/>
      <stop offset=".28" stop-color="#7faa3a"/>
      <stop offset=".38" stop-color="#90b435"/>
      <stop offset=".45" stop-color="#96b834"/>
      <stop offset=".49" stop-color="#a7c449"/>
      <stop offset=".6" stop-color="#d3e381"/>
      <stop offset=".86" stop-color="#5f9962"/>
      <stop offset="1" stop-color="#287654"/>
    </linearGradient>
    <linearGradient id="linear-gradient-2" x1="52.18" y1="44.14" x2="57.69" y2="78.85" gradientUnits="userSpaceOnUse">
      <stop offset="0" stop-color="#287654"/>
      <stop offset=".06" stop-color="#3e834d"/>
      <stop offset=".18" stop-color="#649a42"/>
      <stop offset=".28" stop-color="#7faa3a"/>
      <stop offset=".38" stop-color="#90b435"/>
      <stop offset=".45" stop-color="#96b834"/>
      <stop offset=".71" stop-color="#5f9743"/>
      <stop offset="1" stop-color="#287654"/>
    </linearGradient>
  </defs>
  <g id="Layer_1-2" data-name="Layer 1">
    <g>
      <g>
        <path class="cls-3" d="M71.22,38.43c0,18.11-14.68,32.79-32.79,32.79S5.64,56.54,5.64,38.43,20.32,5.64,38.43,5.64s32.79,14.68,32.79,32.79Z"/>
        <path class="cls-4" d="M38.43,0c-2.59,0-5.13.26-7.58.75-1.3,5.24-3.84,16.21-4.86,23.58-1.38,10.01.03,15.93,1.42,23.28,1.42,7.51,11.39,14.6,11.39,14.6,0,0-14.14,1.42-21.28-6.76-5.06-5.8-4.98-15.42-1.75-25.29,3.55-10.85,11.89-21.91,12.14-22.66.25-.75.76-2.28-.25-4.26-.48-.94-1.09-1.23-2.33-.96C10.56,7.65,0,21.8,0,38.43c0,21.22,17.21,38.43,38.43,38.43,3.72,0,7.31-.54,10.71-1.52.26-1.8.67-4.92.98-9.03.5-6.68-.08-16.86-2.67-24.03-2.59-7.18-10.34-11.29-12.02-12.1-.78-.38-.59-.56.41-.41.62.1,4.32.41,12.2,2.28,10.14,2.41,11.94,7.42,13.09,13.81,1.27,7.06-1.9,16.04-2.23,17.55-.33,1.5.56,3.9,3.4,4.49.23.05.44.09.64.14,8.5-7.05,13.92-17.69,13.92-29.6C76.86,17.2,59.65,0,38.43,0ZM45.65,25.62c-5.11,0-9.26-4.15-9.26-9.26s4.15-9.26,9.26-9.26,9.26,4.15,9.26,9.26-4.15,9.26-9.26,9.26Z"/>
        <path class="cls-6" d="M39.05,62.44c-.09-.07-.19-.15-.28-.22-.65.06-14.28,1.22-21.25-6.76-5.06-5.8-4.98-15.42-1.75-25.29,3.55-10.85,11.89-21.91,12.14-22.66.25-.75.76-2.28-.25-4.26-.52-1.02-1.19-1.27-2.64-.89.22,1.23-.1,2.18-.28,2.72-.25.75-8.7,13.32-12.85,23.95-4.01,10.26-3.78,22.39.92,28.5,6.68,8.68,20.67,7.53,26,6.72,1.33-.2,1.4-.91.25-1.83Z"/>
        <path class="cls-1" d="M65.59,61.92c.44-2.12,4.26-17.98-1.13-25.37-3.59-5.06-9.26-7.69-18.25-7.69-7.06,0-10.08.44-10.57.47-.79.05-.93.18-.32.29.22.04.59.11,1.07.22,1.38.17,5.04.64,11.64,2.21,10.14,2.41,11.94,7.42,13.09,13.81,1.27,7.06-1.9,16.04-2.23,17.55-.33,1.5.56,3.9,3.4,4.49.23.05.44.09.64.14,1.58-1.31,2.24-4.11,2.66-6.11Z"/>
        <path class="cls-5" d="M45.65,11.6c4.68,0,8.54,2.63,9.17,6.04.06-.42.1-.85.1-1.28,0-5.12-4.15-9.26-9.26-9.26s-9.26,4.15-9.26,9.26c0,.44.04.86.1,1.28.63-3.41,4.49-6.04,9.16-6.04Z"/>
      </g>
      <g>
        <path class="cls-2" d="M88.09,28.43c0-.77.25-1.4.75-1.91.5-.51,1.13-.77,1.9-.77s1.43.26,1.93.77c.5.51.75,1.15.75,1.91s-.25,1.4-.75,1.91c-.5.51-1.14.77-1.93.77s-1.43-.25-1.91-.77c-.49-.51-.73-1.15-.73-1.91ZM88.85,34.06h3.79v18.78h-3.79v-18.78Z"/>
        <path class="cls-2" d="M96.61,34.06h3.72v-4.07l3.69-2.4v6.47h5.25v3.37h-5.25v9.25c0,1.04.23,1.8.68,2.26s1.05.7,1.79.7,1.36-.24,1.91-.73l1.77,3.13c-.53.37-1.13.66-1.79.85-.66.2-1.39.3-2.17.3-1.88,0-3.33-.5-4.35-1.5-1.02-1-1.53-2.65-1.53-4.97v-9.29h-3.72v-3.37Z"/>
        <path class="cls-2" d="M113.79,25.44h3.72v11.13c.67-.88,1.51-1.58,2.52-2.1,1.01-.52,2.15-.78,3.43-.78,1.18,0,2.25.19,3.22.57.96.38,1.77.93,2.43,1.63.66.71,1.17,1.58,1.53,2.61.36,1.03.54,2.19.54,3.46v10.89h-3.83v-10.61c0-1.6-.4-2.88-1.2-3.83-.8-.95-2-1.43-3.6-1.43-.7,0-1.35.13-1.97.38-.61.26-1.15.62-1.6,1.1-.45.48-.81,1.06-1.06,1.74-.26.68-.38,1.44-.38,2.28v10.37h-3.76v-27.41Z"/>
        <path class="cls-2" d="M146.73,53.23c-.88,0-1.74-.12-2.57-.37-.83-.24-1.62-.59-2.35-1.04s-1.39-1.01-1.98-1.67c-.59-.66-1.06-1.42-1.41-2.28v12.21h-1.25v-26.02h1.22v5.04c.35-.86.82-1.62,1.41-2.3.59-.67,1.26-1.24,2-1.7s1.54-.82,2.38-1.06c.85-.24,1.71-.37,2.59-.37,1.34,0,2.61.25,3.79.75s2.21,1.19,3.1,2.07c.88.88,1.57,1.92,2.07,3.11.5,1.19.75,2.48.75,3.84s-.25,2.68-.75,3.86c-.5,1.18-1.18,2.21-2.05,3.1s-1.9,1.57-3.08,2.07-2.47.75-3.86.75ZM146.73,52.01c1.18,0,2.28-.21,3.3-.64,1.02-.43,1.91-1.03,2.68-1.79s1.36-1.67,1.79-2.71.64-2.18.64-3.41-.21-2.33-.64-3.37-1.03-1.95-1.79-2.73c-.77-.78-1.66-1.39-2.68-1.83-1.02-.44-2.12-.66-3.3-.66s-2.33.23-3.36.68c-1.03.45-1.93,1.07-2.7,1.84-.77.78-1.36,1.69-1.79,2.73-.43,1.04-.64,2.16-.64,3.34,0,1.3.24,2.47.71,3.51.48,1.04,1.11,1.94,1.9,2.7.79.75,1.69,1.33,2.71,1.74,1.02.41,2.08.61,3.17.61Z"/>
        <path class="cls-2" d="M162.45,25.4h1.22v13.08c.28-.7.67-1.33,1.17-1.91.5-.58,1.08-1.08,1.74-1.51.66-.43,1.39-.77,2.17-1.01.79-.24,1.63-.37,2.54-.37,1.25,0,2.4.2,3.44.59,1.04.39,1.94.96,2.68,1.7.74.74,1.32,1.64,1.72,2.7.41,1.06.61,2.26.61,3.6v10.57h-1.29v-10.57c0-1.11-.17-2.13-.5-3.04-.34-.92-.82-1.7-1.44-2.35-.63-.65-1.39-1.15-2.3-1.5-.9-.35-1.92-.52-3.06-.52-1.04,0-2.02.19-2.92.56-.9.37-1.69.89-2.37,1.55-.67.66-1.2,1.44-1.58,2.35-.38.9-.57,1.89-.57,2.96v10.57h-1.25v-27.44Z"/>
        <path class="cls-2" d="M192.09,53.19c-1.18,0-2.21-.15-3.08-.43-.87-.29-1.58-.68-2.14-1.17-.56-.49-.97-1.06-1.23-1.7-.27-.65-.4-1.33-.4-2.05,0-.97.21-1.83.63-2.56.42-.73,1-1.34,1.76-1.83.75-.49,1.66-.85,2.73-1.1,1.07-.24,2.26-.37,3.58-.37h7.03v-1.39c0-.86-.15-1.64-.43-2.35-.29-.71-.72-1.32-1.29-1.83-.57-.51-1.27-.91-2.1-1.2-.83-.29-1.81-.44-2.92-.44-1.79,0-3.23.29-4.33.87-1.1.58-2.08,1.42-2.94,2.5l-1.04-.83c1-1.14,2.15-2.03,3.46-2.68,1.31-.65,2.93-.97,4.85-.97,1.32,0,2.48.17,3.48.52,1,.35,1.83.83,2.49,1.44.66.61,1.16,1.34,1.5,2.19.34.85.5,1.76.5,2.73v12.28h-1.22v-4.35c-.88,1.44-2.11,2.58-3.69,3.43-1.58.85-3.3,1.27-5.18,1.27ZM192.19,52.08c.9,0,1.79-.12,2.66-.37s1.69-.59,2.45-1.04,1.46-1.01,2.09-1.67c.63-.66,1.15-1.41,1.56-2.24v-3.72h-6.99c-2.32,0-4.13.39-5.44,1.17-1.31.78-1.97,1.97-1.97,3.57,0,.58.11,1.13.33,1.65.22.52.56.98,1.01,1.37.45.39,1.04.71,1.76.94s1.57.35,2.54.35Z"/>
        <path class="cls-2" d="M208.85,34.06h1.18v4.24c.42-1.51,1.13-2.65,2.14-3.43s2.31-1.17,3.91-1.17c.63,0,1.22.06,1.77.19.56.13,1.02.3,1.39.5l-.63,1.15c-.67-.44-1.53-.66-2.57-.66-1.93,0-3.41.66-4.45,1.97s-1.54,3.29-1.5,5.93v10.05h-1.25v-18.78Z"/>
        <path class="cls-2" d="M224.36,34.06h1.18v4.21c.51-1.32,1.36-2.42,2.56-3.29,1.19-.87,2.66-1.3,4.4-1.3,1.92,0,3.5.45,4.73,1.34,1.23.89,2.05,2.13,2.47,3.7.21-.72.54-1.39,1.01-2,.46-.61,1.01-1.15,1.65-1.6.64-.45,1.36-.81,2.17-1.06.81-.25,1.68-.38,2.61-.38,1.25,0,2.38.2,3.37.59,1,.39,1.84.95,2.54,1.65.7.71,1.23,1.56,1.6,2.57.37,1.01.56,2.13.56,3.36v10.99h-1.25v-11.1c0-1-.16-1.92-.49-2.78s-.78-1.59-1.37-2.19-1.31-1.08-2.16-1.43c-.85-.35-1.79-.52-2.83-.52-.95,0-1.84.16-2.68.47-.83.31-1.56.76-2.17,1.34-.61.58-1.1,1.28-1.44,2.1s-.52,1.76-.52,2.8v11.3h-1.25v-11.48c0-2.04-.59-3.64-1.77-4.8-1.18-1.16-2.79-1.74-4.83-1.74-1,0-1.91.17-2.75.52-.83.35-1.55.83-2.16,1.46-.6.63-1.07,1.37-1.41,2.24-.34.87-.5,1.83-.5,2.87v10.92h-1.25v-18.78Z"/>
        <path class="cls-2" d="M267.6,53.19c-1.18,0-2.21-.15-3.08-.43-.87-.29-1.58-.68-2.14-1.17-.56-.49-.97-1.06-1.23-1.7-.27-.65-.4-1.33-.4-2.05,0-.97.21-1.83.63-2.56.42-.73,1-1.34,1.76-1.83.75-.49,1.66-.85,2.73-1.1,1.07-.24,2.26-.37,3.58-.37h7.03v-1.39c0-.86-.15-1.64-.43-2.35-.29-.71-.72-1.32-1.29-1.83-.57-.51-1.27-.91-2.1-1.2-.83-.29-1.81-.44-2.92-.44-1.79,0-3.23.29-4.33.87-1.1.58-2.08,1.42-2.94,2.5l-1.04-.83c1-1.14,2.15-2.03,3.46-2.68,1.31-.65,2.93-.97,4.85-.97,1.32,0,2.48.17,3.48.52,1,.35,1.83.83,2.49,1.44.66.61,1.16,1.34,1.5,2.19.34.85.5,1.76.5,2.73v12.28h-1.22v-4.35c-.88,1.44-2.11,2.58-3.69,3.43-1.58.85-3.3,1.27-5.18,1.27ZM267.7,52.08c.9,0,1.79-.12,2.66-.37s1.69-.59,2.45-1.04,1.46-1.01,2.09-1.67c.63-.66,1.15-1.41,1.56-2.24v-3.72h-6.99c-2.32,0-4.13.39-5.44,1.17-1.31.78-1.97,1.97-1.97,3.57,0,.58.11,1.13.33,1.65.22.52.56.98,1.01,1.37.45.39,1.04.71,1.76.94s1.57.35,2.54.35Z"/>
      </g>
    </g>
  </g>
</svg>