<?xml version="1.0" encoding="UTF-8"?>
<svg id="Layer_2" data-name="Layer 2" xmlns="http://www.w3.org/2000/svg" viewBox="0 0 85.52 174.27">
  <defs>
    <style>
      .cls-1 {
        fill: #fff;
        opacity: .52;
      }

      .cls-2 {
        fill: #f4f4f4;
      }
    </style>
  </defs>
  <g id="Layer_1-2" data-name="Layer 1">
    <path class="cls-1" d="M42.76,0c-2.89,0-5.71.29-8.43.83-1.45,5.84-4.28,18.03-5.4,26.23-1.53,11.14.03,17.72,1.58,25.91,1.58,8.36,12.67,16.25,12.67,16.25,0,0-15.74,1.58-23.68-7.52-5.63-6.46-5.54-17.16-1.95-28.13,3.95-12.07,13.23-24.37,13.51-25.21.28-.83.85-2.54-.28-4.73-.54-1.05-1.21-1.36-2.6-1.07C11.75,8.51,0,24.26,0,42.76c0,23.61,19.14,42.76,42.76,42.76,4.14,0,8.13-.6,11.91-1.7.29-2,.74-5.48,1.09-10.05.56-7.43-.09-18.76-2.97-26.74-2.88-7.99-11.5-12.56-13.37-13.46-.87-.42-.66-.63.45-.45.69.11,4.8.46,13.58,2.54,11.28,2.68,13.29,8.25,14.57,15.37,1.42,7.86-2.11,17.85-2.48,19.52-.37,1.67.63,4.34,3.78,4.99.25.05.49.11.71.16,9.46-7.84,15.49-19.68,15.49-32.94C85.52,19.14,66.37,0,42.76,0ZM50.79,28.5c-5.69,0-10.31-4.61-10.31-10.31s4.62-10.31,10.31-10.31,10.31,4.61,10.31,10.31-4.62,10.31-10.31,10.31Z"/>
    <g>
      <path class="cls-2" d="M3.58,103.99c0-1.36.44-2.5,1.33-3.41.89-.91,2.02-1.36,3.38-1.36s2.55.46,3.44,1.36c.89.91,1.33,2.05,1.33,3.41s-.44,2.5-1.33,3.41c-.89.91-2.04,1.36-3.44,1.36s-2.54-.45-3.41-1.36c-.87-.91-1.3-2.05-1.3-3.41ZM4.95,114.03h6.76v33.48h-6.76v-33.48Z"/>
      <path class="cls-2" d="M18.77,114.03h6.63v-7.25l6.57-4.28v11.53h9.36v6.01h-9.36v16.49c0,1.86.4,3.2,1.21,4.03.81.83,1.87,1.24,3.19,1.24s2.42-.43,3.41-1.3l3.16,5.58c-.95.66-2.02,1.17-3.19,1.52-1.18.35-2.47.53-3.88.53-3.35,0-5.93-.89-7.75-2.67-1.82-1.78-2.73-4.73-2.73-8.87v-16.55h-6.63v-6.01Z"/>
      <path class="cls-2" d="M49.4,98.66h6.63v19.84c1.2-1.57,2.7-2.82,4.5-3.75,1.8-.93,3.83-1.4,6.11-1.4,2.11,0,4.02.34,5.73,1.02,1.71.68,3.16,1.65,4.34,2.91,1.18,1.26,2.09,2.81,2.73,4.65.64,1.84.96,3.9.96,6.17v19.41h-6.82v-18.91c0-2.85-.71-5.12-2.14-6.82-1.43-1.69-3.56-2.54-6.42-2.54-1.24,0-2.41.23-3.5.68-1.1.46-2.05,1.11-2.85,1.95-.81.85-1.44,1.88-1.89,3.1-.46,1.22-.68,2.57-.68,4.06v18.48h-6.7v-48.86Z"/>
      <path class="cls-2" d="M7.88,170.52c-.48,0-.95-.07-1.41-.2s-.88-.32-1.28-.57c-.4-.25-.76-.55-1.08-.91-.32-.36-.58-.78-.77-1.24v6.67h-.68v-14.21h.67v2.75c.19-.47.45-.89.77-1.25.32-.37.69-.68,1.09-.93.41-.25.84-.45,1.3-.58.46-.13.93-.2,1.42-.2.73,0,1.43.14,2.07.41s1.21.65,1.69,1.13.86,1.05,1.13,1.7.41,1.35.41,2.1-.14,1.46-.41,2.11c-.27.65-.65,1.21-1.12,1.69-.48.48-1.04.86-1.68,1.13-.65.27-1.35.41-2.11.41ZM7.88,169.86c.65,0,1.25-.12,1.8-.35.56-.23,1.04-.56,1.46-.98.42-.42.74-.91.98-1.48.23-.57.35-1.19.35-1.86s-.12-1.27-.35-1.84c-.23-.57-.56-1.07-.98-1.49-.42-.42-.91-.76-1.46-1-.56-.24-1.16-.36-1.8-.36s-1.27.12-1.83.37c-.56.25-1.05.58-1.47,1.01s-.74.92-.98,1.49-.35,1.18-.35,1.82c0,.71.13,1.35.39,1.92.26.57.6,1.06,1.04,1.47.43.41.92.73,1.48.95.56.22,1.13.33,1.73.33Z"/>
      <path class="cls-2" d="M16.47,155.32h.66v7.14c.15-.38.36-.73.64-1.04s.59-.59.95-.83c.36-.23.76-.42,1.19-.55.43-.13.89-.2,1.39-.2.68,0,1.31.11,1.88.32.57.22,1.06.53,1.46.93.41.41.72.9.94,1.47.22.58.33,1.23.33,1.97v5.78h-.7v-5.78c0-.61-.09-1.16-.28-1.66-.18-.5-.45-.93-.79-1.28s-.76-.63-1.25-.82c-.49-.19-1.05-.29-1.67-.29-.57,0-1.1.1-1.6.3-.49.2-.92.48-1.29.84-.37.36-.66.79-.86,1.28-.21.49-.31,1.03-.31,1.61v5.78h-.68v-14.99Z"/>
      <path class="cls-2" d="M32.66,170.5c-.65,0-1.21-.08-1.68-.24-.48-.16-.86-.37-1.17-.64-.3-.27-.53-.58-.67-.93-.15-.35-.22-.73-.22-1.12,0-.53.11-1,.34-1.4.23-.4.55-.73.96-1,.41-.27.91-.47,1.49-.6.58-.13,1.23-.2,1.96-.2h3.84v-.76c0-.47-.08-.9-.24-1.28-.16-.39-.39-.72-.7-1-.31-.28-.69-.5-1.15-.66-.46-.16-.99-.24-1.6-.24-.98,0-1.76.16-2.37.48s-1.14.77-1.61,1.37l-.57-.46c.54-.62,1.17-1.11,1.89-1.46.72-.35,1.6-.53,2.65-.53.72,0,1.36.09,1.9.29.54.19,1,.45,1.36.79.36.34.63.73.82,1.2.18.46.28.96.28,1.49v6.71h-.67v-2.38c-.48.79-1.15,1.41-2.01,1.87-.86.46-1.8.69-2.83.69ZM32.72,169.9c.49,0,.98-.07,1.45-.2.48-.13.92-.32,1.34-.57s.8-.55,1.14-.91c.34-.36.63-.77.85-1.23v-2.03h-3.82c-1.27,0-2.26.21-2.97.64-.72.42-1.07,1.07-1.07,1.95,0,.32.06.62.18.9.12.28.3.54.55.75.25.22.57.39.96.51.39.13.85.19,1.39.19Z"/>
      <path class="cls-2" d="M41.82,160.05h.65v2.32c.23-.82.62-1.45,1.17-1.87.55-.42,1.26-.64,2.14-.64.34,0,.67.04.97.1.3.07.56.16.76.28l-.34.63c-.37-.24-.84-.36-1.41-.36-1.05,0-1.86.36-2.43,1.07-.57.72-.84,1.8-.82,3.24v5.49h-.68v-10.26Z"/>
      <path class="cls-2" d="M50.29,160.05h.65v2.3c.28-.72.74-1.32,1.4-1.8.65-.47,1.45-.71,2.4-.71,1.05,0,1.91.24,2.58.73s1.12,1.16,1.35,2.02c.11-.39.3-.76.55-1.09.25-.33.55-.63.9-.87.35-.25.74-.44,1.19-.58.44-.14.92-.21,1.42-.21.68,0,1.3.11,1.84.32.54.22,1.01.52,1.39.9.38.39.67.85.87,1.41.2.55.3,1.16.3,1.83v6h-.68v-6.06c0-.54-.09-1.05-.27-1.52s-.43-.87-.75-1.2c-.32-.33-.72-.59-1.18-.78-.46-.19-.98-.29-1.55-.29-.52,0-1.01.08-1.46.26-.46.17-.85.42-1.19.73-.34.32-.6.7-.79,1.15-.19.45-.29.96-.29,1.53v6.17h-.68v-6.27c0-1.12-.32-1.99-.97-2.62-.65-.63-1.53-.95-2.64-.95-.54,0-1.04.09-1.5.29-.46.19-.85.46-1.18.8-.33.34-.59.75-.77,1.23-.18.47-.28,1-.28,1.57v5.97h-.68v-10.26Z"/>
      <path class="cls-2" d="M73.91,170.5c-.65,0-1.21-.08-1.68-.24-.48-.16-.86-.37-1.17-.64-.3-.27-.53-.58-.67-.93-.15-.35-.22-.73-.22-1.12,0-.53.11-1,.34-1.4.23-.4.55-.73.96-1,.41-.27.91-.47,1.49-.6.58-.13,1.23-.2,1.96-.2h3.84v-.76c0-.47-.08-.9-.24-1.28-.16-.39-.39-.72-.7-1-.31-.28-.69-.5-1.15-.66-.46-.16-.99-.24-1.6-.24-.98,0-1.76.16-2.37.48s-1.14.77-1.61,1.37l-.57-.46c.54-.62,1.17-1.11,1.89-1.46.72-.35,1.6-.53,2.65-.53.72,0,1.36.09,1.9.29.54.19,1,.45,1.36.79.36.34.63.73.82,1.2.18.46.28.96.28,1.49v6.71h-.67v-2.38c-.48.79-1.15,1.41-2.01,1.87-.86.46-1.8.69-2.83.69ZM73.97,169.9c.49,0,.98-.07,1.45-.2.48-.13.92-.32,1.34-.57s.8-.55,1.14-.91c.34-.36.63-.77.85-1.23v-2.03h-3.82c-1.27,0-2.26.21-2.97.64-.72.42-1.07,1.07-1.07,1.95,0,.32.06.62.18.9.12.28.3.54.55.75.25.22.57.39.96.51.39.13.85.19,1.39.19Z"/>
    </g>
  </g>
</svg>